<svg xmlns="http://www.w3.org/2000/svg" width="500" height="500" viewBox="0 0 128 128"><path d="M51.2 49.28h3.84l3.2 7.04 3.2 -7.04h7.68c1.84 4.88 1.84 4.88 2.56 7.04l2.56 -7.04h3.2l2.56 6.4 2.56 -6.4h3.84q-0.938 2.841 -1.88 5.68l-0.539 1.632 -0.518 1.563 -0.478 1.443C82.56 60.8 82.56 60.8 81.92 62.08h-3.84l-2.56 -5.76 -1.92 5.76 -3.2 0.64c-1.398 -2.204 -2.437 -4.345 -3.32 -6.8l-0.668 -1.825C65.92 52.48 65.92 52.48 65.92 50.56h-1.28l-0.68 2.24c-1.017 3.064 -2.268 6.005 -3.56 8.96l-0.608 1.394c-1.468 3.322 -1.468 3.322 -2.192 4.046 -1.28 0.026 -2.56 0.028 -3.84 0l0.577 -1.062c0.96 -2.228 1.689 -4.133 0.994 -6.552 -0.89 -2.184 -1.967 -4.248 -3.084 -6.323C51.2 51.2 51.2 51.2 51.2 49.28" fill="#2f323c"/><path d="M98.56 49.28c1.83 1.564 2.97 2.709 3.46 5.12 0.13 2.853 -0.373 4.846 -2.18 7.04 -2.187 1.64 -4.387 1.427 -7.04 1.28l-1.28 -0.64 -0.64 5.12h-3.84V49.28h5.12c2.118 -1.059 4.212 -0.669 6.4 0m-7.04 3.84c-0.524 2.28 -0.524 2.28 -0.64 4.48 1.085 1.068 1.085 1.068 2.56 1.92 2.157 -0.154 2.936 -0.376 4.48 -1.92 0.373 -1.892 0.373 -1.892 0 -3.84 -2.499 -1.923 -3.773 -2.528 -6.4 -0.64" fill="#313440"/><path d="M40.96 49.28c1.875 1.443 2.45 2.23 3.2 4.48 0.236 3.185 0.106 5.148 -1.92 7.68 -2.187 1.64 -4.387 1.427 -7.04 1.28l-1.28 -0.64 -0.64 5.12h-3.84V49.28h5.12c2.084 -1.043 4.218 -0.566 6.4 0m-6.4 3.2c-1.375 2.061 -1.639 2.726 -1.28 5.12 1.021 1.286 1.021 1.286 2.56 1.92 2.157 -0.154 2.936 -0.376 4.48 -1.92 0.213 -1.92 0.213 -1.92 0 -3.84 -1.245 -1.518 -1.245 -1.518 -3.52 -1.48z" fill="#333742"/><path d="M24.32 69.12h27.52c-1.92 3.84 -1.92 3.84 -2.56 4.48 -1.939 0.057 -3.864 0.074 -5.802 0.063l-1.763 -0.003a2303.36 2303.36 0 0 1 -5.596 -0.019q-1.891 -0.006 -3.784 -0.009Q27.688 73.62 23.04 73.6z" fill="#7cc4dd"/><path d="M40.96 49.28c1.6 1.32 1.6 1.32 2.56 2.56a220.8 220.8 0 0 1 -1.28 2.52c-0.71 1.391 -0.71 1.391 -1.28 3.24h-0.64l-1.28 -4.48h-4.48l-0.64 4.48h-1.92v-3.2c-0.428 1.819 -0.64 3.402 -0.64 5.28V61.44l-0.64 0.64a151.04 151.04 0 0 0 -0.64 4.48h-0.64V49.28h5.12c2.08 -1.04 4.223 -0.576 6.4 0" fill="#30333d"/><path d="M21.76 74.24h20.48l-1.92 3.84H21.12z" fill="#4587be"/><path d="M46.08 43.52h3.2v18.56h-3.2z" fill="#343741"/><path d="M29.44 49.28h3.84l1.28 1.28h-1.92l-0.64 0.64v1.28h-1.28l0.14 1.148c0.645 5.491 0.645 5.491 0.5 7.812l-0.64 0.64a151.04 151.04 0 0 0 -0.64 4.48h-0.64z" fill="#2a2d37"/><path d="M48.64 69.76h2.56c-1.2 3.12 -1.2 3.12 -1.92 3.84 -5.706 0.268 -11.458 -0.079 -17.16 -0.32l-2.291 -0.093Q27.073 73.076 24.32 72.96l0.64 -1.92v1.28l1.622 -0.01q3.013 -0.016 6.026 -0.025 1.932 -0.008 3.864 -0.021c4.118 -0.01 8.1 0.037 12.168 0.696z" fill="#80c6df"/><path d="M87.04 49.28h7.68l-1.28 2.56 -1.92 0.64c-1.067 0.96 -1.067 0.96 -1.92 1.92 -1.632 -0.816 -1.875 -1.538 -2.56 -3.2z" fill="#333642"/><path d="M87.04 51.2c1.484 2.225 1.389 3.155 1.28 5.76v8.96l0.64 -0.64 1.28 -0.64 -0.64 -1.92 0.64 -1.92h1.92l-1.28 6.4h-3.84z" fill="#272a32"/><path d="m72.96 56.96 1.28 0.64 -0.64 3.2 -3.2 0.64 -0.64 -1.92c0.811 -1.622 1.54 -1.906 3.2 -2.56" fill="#333643"/><path d="m83.84 49.28 2.56 0.64 -0.64 1.92h-1.28l-0.64 3.2 -1.92 -0.64c0.402 -1.875 1.015 -3.431 1.92 -5.12" fill="#363842"/><path d="M48.64 69.76h2.56c-1.2 3.12 -1.2 3.12 -1.92 3.84 -1.186 0.046 -2.373 0.054 -3.56 0.04l-1.963 -0.018L42.24 73.6v-0.64h6.4z" fill="#90c8dc"/><path d="m74.88 49.92 2.56 0.64v2.56h-3.2z" fill="#383a46"/></svg>
